<?xml version="1.0" standalone="no"?>
<!DOCTYPE svg PUBLIC "-//W3C//DTD SVG 20010904//EN"
 "http://www.w3.org/TR/2001/REC-SVG-20010904/DTD/svg10.dtd">
<svg version="1.0" xmlns="http://www.w3.org/2000/svg"
 width="200.000000pt" height="200.000000pt" viewBox="0 0 200.000000 200.000000"
 preserveAspectRatio="xMidYMid meet">

<g transform="translate(0.000000,200.000000) scale(0.100000,-0.100000)"
fill="#000000" stroke="none">
<path d="M0 1000 l0 -1000 1000 0 1000 0 0 1000 0 1000 -1000 0 -1000 0 0
-1000z m542 160 c37 -11 78 -51 78 -76 0 -19 -56 -18 -64 1 -14 36 -106 37
-119 0 -9 -22 21 -52 60 -60 101 -19 143 -59 128 -124 -12 -57 -78 -89 -160
-77 -47 8 -95 46 -95 77 0 28 44 24 74 -6 31 -31 78 -33 106 -5 11 11 20 24
20 28 0 19 -38 41 -85 52 -92 21 -126 62 -104 127 8 26 21 40 53 54 48 22 58
22 108 9z m1273 -4 c58 -25 74 -90 31 -129 l-24 -21 29 -27 c79 -74 -5 -175
-129 -156 -39 7 -92 54 -92 82 0 25 50 18 72 -10 23 -30 66 -33 98 -7 45 36 1
92 -71 92 -12 0 -19 7 -19 20 0 15 7 20 28 20 58 0 91 49 56 84 -23 23 -62 19
-88 -9 -28 -30 -66 -34 -66 -6 0 23 45 68 73 74 44 8 68 7 102 -7z m-1497
-137 l-3 -141 -34 -30 c-30 -27 -39 -30 -84 -25 -39 3 -56 11 -74 31 -33 39
-31 66 6 66 21 0 32 -6 36 -19 8 -25 38 -35 65 -21 19 10 20 20 20 145 l0 135
36 0 36 0 -4 -141z m561 123 c53 -26 72 -61 78 -133 5 -76 -14 -121 -66 -156
-29 -20 -47 -23 -122 -23 l-89 0 0 165 0 165 83 0 c58 0 92 -5 116 -18z m285
-76 c49 -20 66 -51 66 -117 0 -47 -5 -63 -26 -88 -44 -53 -123 -54 -175 -1
-25 24 -29 36 -29 82 0 67 16 98 60 120 42 22 60 22 104 4z m271 0 c34 -14 55
-41 55 -70 0 -26 -45 -19 -64 9 -36 54 -96 17 -96 -59 0 -68 55 -100 95 -56
21 23 65 27 65 6 0 -26 -41 -65 -75 -72 -48 -9 -82 2 -116 36 -25 24 -29 36
-29 82 0 67 16 98 60 120 42 22 60 22 105 4z"/>
<path d="M740 995 l0 -115 48 0 c59 0 88 19 103 69 26 88 -22 161 -107 161
l-44 0 0 -115z"/>
<path d="M1077 1012 c-24 -26 -23 -104 1 -125 43 -39 95 -5 95 63 0 69 -57
105 -96 62z"/>
</g>
</svg>
