<?xml version="1.0" standalone="no"?>
<!DOCTYPE svg PUBLIC "-//W3C//DTD SVG 20010904//EN"
 "http://www.w3.org/TR/2001/REC-SVG-20010904/DTD/svg10.dtd">
<svg version="1.0" xmlns="http://www.w3.org/2000/svg"
 width="200.000000pt" height="200.000000pt" viewBox="0 0 200.000000 200.000000"
 preserveAspectRatio="xMidYMid meet">

<g transform="translate(0.000000,200.000000) scale(0.100000,-0.100000)"
fill="#000000" stroke="none">
<path d="M434 1151 c-32 -14 -45 -28 -53 -54 -22 -65 12 -106 104 -127 47 -11
85 -33 85 -52 0 -4 -9 -17 -20 -28 -28 -28 -75 -26 -106 5 -30 30 -74 34 -74
6 0 -27 47 -70 87 -77 110 -21 198 52 163 135 -12 30 -50 51 -120 66 -45 9
-60 22 -60 50 0 45 100 53 116 10 8 -19 64 -20 64 -1 0 25 -41 65 -78 76 -50
13 -60 13 -108 -9z"/>
<path d="M1696 1155 c-34 -18 -55 -43 -56 -67 0 -27 39 -22 66 7 26 28 65 32
88 9 35 -35 2 -84 -56 -84 -21 0 -28 -5 -28 -20 0 -13 7 -20 19 -20 72 0 116
-56 71 -92 -31 -25 -66 -23 -96 7 -28 28 -74 34 -74 10 0 -28 53 -75 92 -82
124 -19 208 82 129 156 l-29 27 24 21 c43 39 27 104 -31 129 -44 18 -83 18
-119 -1z"/>
<path d="M250 1025 c0 -125 -1 -135 -20 -145 -27 -14 -57 -4 -65 21 -4 13 -15
19 -36 19 -39 0 -39 -31 0 -71 42 -41 107 -41 153 0 l33 29 3 141 4 141 -36 0
-36 0 0 -135z"/>
<path d="M680 995 l0 -165 89 0 c75 0 93 3 122 23 51 34 71 80 67 154 -7 112
-59 153 -195 153 l-83 0 0 -165z m179 89 c36 -30 48 -80 32 -135 -15 -50 -44
-69 -103 -69 l-48 0 0 115 0 115 44 0 c33 0 52 -7 75 -26z"/>
<path d="M1060 1062 c-44 -22 -60 -53 -60 -120 0 -46 4 -58 29 -82 52 -53 131
-52 175 1 21 25 26 41 26 88 0 66 -17 97 -66 117 -44 18 -62 18 -104 -4z m95
-52 c39 -43 12 -140 -38 -140 -36 0 -57 29 -57 78 0 74 53 108 95 62z"/>
<path d="M1330 1062 c-44 -22 -60 -53 -60 -120 0 -46 4 -58 29 -82 34 -34 68
-45 116 -36 34 7 75 46 75 72 0 21 -44 17 -65 -6 -40 -44 -95 -12 -95 56 0 76
60 113 96 59 19 -28 64 -35 64 -9 0 29 -21 56 -55 70 -45 18 -63 18 -105 -4z"/>
</g>
</svg>
