<?xml version="1.0" standalone="no"?>
<!DOCTYPE svg PUBLIC "-//W3C//DTD SVG 20010904//EN"
 "http://www.w3.org/TR/2001/REC-SVG-20010904/DTD/svg10.dtd">
<svg version="1.0" xmlns="http://www.w3.org/2000/svg"
 width="1400.000000pt" height="700.000000pt" viewBox="0 0 1400.000000 700.000000"
 preserveAspectRatio="xMidYMid meet">

<g transform="translate(0.000000,700.000000) scale(0.100000,-0.100000)"
fill="#000000" stroke="none">
<path d="M0 3500 l0 -3500 7000 0 7000 0 0 3500 0 3500 -7000 0 -7000 0 0
-3500z m6650 0 l0 -1750 -1750 0 -1750 0 0 1750 0 1750 1750 0 1750 0 0 -1750z
m1185 117 c156 -55 302 -173 384 -310 80 -135 119 -334 107 -543 -21 -369
-213 -628 -533 -716 -70 -19 -109 -22 -395 -26 l-318 -4 0 817 0 816 338 -3
337 -3 80 -28z m1373 -373 c187 -38 334 -169 398 -354 46 -132 50 -355 8 -499
-55 -191 -208 -336 -399 -376 -211 -44 -418 9 -550 140 -100 100 -147 211
-166 386 -49 480 268 794 709 703z m1277 1 c173 -37 296 -146 346 -306 10 -33
19 -83 19 -110 l0 -49 -150 0 -149 0 -7 38 c-21 118 -96 177 -214 170 -117 -6
-175 -65 -201 -204 -15 -82 -6 -316 15 -372 37 -101 98 -144 201 -144 104 0
174 49 196 139 l11 43 149 0 149 0 0 -43 c0 -91 -57 -206 -139 -280 -150 -136
-427 -167 -628 -70 -80 38 -181 140 -221 223 -56 115 -67 176 -66 360 0 151 3
172 27 245 79 238 264 372 517 374 41 0 106 -6 145 -14z"/>
<path d="M4757 3643 c-4 -3 -7 -277 -7 -607 0 -552 -1 -604 -18 -636 -32 -65
-115 -86 -219 -55 -57 17 -110 68 -120 116 -5 28 -6 28 -62 24 -31 -3 -96 -8
-145 -11 l-88 -6 6 -46 c16 -120 125 -266 240 -322 243 -120 530 -52 640 151
56 101 56 102 56 777 l0 622 -138 0 c-76 0 -142 -3 -145 -7z"/>
<path d="M5745 3639 c-141 -20 -267 -96 -336 -201 -50 -79 -69 -143 -69 -239
0 -242 156 -410 459 -494 191 -53 262 -112 265 -218 2 -106 -65 -152 -224
-151 -141 0 -223 43 -270 143 l-24 49 -105 -38 c-58 -21 -121 -44 -138 -51
l-33 -14 38 -75 c76 -153 223 -262 395 -295 396 -75 703 161 648 497 -35 211
-177 348 -437 423 -215 62 -284 116 -284 225 0 51 21 88 68 120 28 20 51 26
113 29 96 4 131 -11 199 -86 l51 -55 82 47 c123 72 157 94 157 104 0 5 -20 36
-45 69 -123 164 -305 239 -510 211z"/>
<path d="M7420 2839 l0 -541 138 4 c132 3 140 4 204 36 76 37 126 89 164 170
44 94 56 178 52 367 -4 152 -7 178 -30 243 -67 188 -190 262 -435 262 l-93 0
0 -541z"/>
<path d="M8975 2976 c-75 -34 -128 -125 -146 -252 -20 -146 7 -300 66 -378 84
-111 282 -104 356 13 97 152 86 453 -19 564 -44 47 -94 67 -164 67 -35 -1 -76
-7 -93 -14z"/>
</g>
</svg>
